<svg width="148" height="52" viewBox="0 0 148 52" fill="none" xmlns="http://www.w3.org/2000/svg">
<path fill-rule="evenodd" clip-rule="evenodd" d="M7.46575 21.7433C7.58938 15.8299 10.791 11.7862 14.9059 9.81966C20.8348 6.98638 24.9235 7.52691 31.6395 6.42929L33.6481 0.229492C22.377 0.443184 -1.84178 6.76677 0.603912 21.9846C0.840841 23.4586 0.543464 22.6785 1.17725 23.5685C0.910857 26.3225 4.10591 31.0959 5.36665 32.6337C10.3203 38.6752 26.7138 45.6379 32.8846 45.4968C33.5012 35.6594 31.1 40.7833 17.0603 33.5191C13.0023 31.4194 7.5385 27.5076 7.46605 21.7434L7.46575 21.7433ZM103.875 12.4204C102.182 13.0885 102.495 15.3816 103.587 15.9206C104.268 16.2568 108.154 16.3026 108.851 15.9921C110.06 15.4536 110.369 12.9356 108.775 12.3592C107.902 12.0436 104.557 12.1513 103.875 12.4204ZM114.556 15.9414C118.449 16.7257 121.968 17.1812 120.719 12.5536C119.653 12.2468 117.044 12.0315 115.686 12.2562C113.637 12.5955 113.871 14.1155 114.556 15.9414ZM60.8167 22.4222C63.1724 21.7949 64.205 21.51 66.1373 23.4174L66.5047 23.792C66.5394 23.827 66.6209 23.9209 66.6864 23.9777C68.0234 27.904 65.1858 31.3568 61.5663 29.9957C57.9639 28.641 58.2717 24.73 60.8167 22.4222ZM69.6437 22.4893C68.571 20.5475 66.2566 19.9282 64.9703 18.4261L70.0278 15.3674C70.005 13.3809 69.0648 12.56 68.0065 11.8882C64.5575 12.7665 57.1009 16.9793 55.8014 21.9354C55.2065 22.9379 51.3637 37.955 63.9709 34.8596C77.1624 31.6205 72.3705 23.72 69.6437 22.4893ZM131.414 24.4505C133.583 23.1849 135.589 21.0916 138.978 23.1509L138.773 24.759C137.361 27.3567 133.559 29.8367 129.606 28.0731C129.604 26.2061 130.756 25.845 131.414 24.4503L131.414 24.4505ZM142.192 20.8018C140.376 15.6932 138.441 14.3244 132.62 12.4297C129.473 11.4053 129.718 12.0687 129.704 15.2763C131.533 16.4693 131.681 15.153 136.882 18.4541C135.684 19.1703 133.507 19.2546 131.989 19.7927C130.538 20.3071 128.681 21.1432 127.722 22.2791C121.822 26.7865 125.471 36.2077 135.739 32.2414C137.89 31.4104 139.241 29.7589 141.317 29.3264L143.23 33.3347L147.513 31.8313C147.263 30.4931 143.146 22.739 142.192 20.8016L142.192 20.8018ZM80.4213 25.8781C81.7721 25.0826 82.2573 24.0693 83.6783 23.4767C85.5074 22.7136 86.9055 23.2132 88.6063 23.5392C89.0897 24.4851 88.7644 23.638 88.8467 24.9727C86.398 26.6556 85.6999 29.1326 79.2881 28.6247C79.7561 27.2007 80.2099 27.2833 80.4211 25.8785L80.4213 25.8781ZM93.3616 24.7652C90.9326 17.9463 87.5597 13.0591 79.7752 12.8908L79.4277 16.4455C82.3706 17.0322 84.5358 18.0829 86.6635 19.0869C86.1729 19.4558 86.5035 19.2909 85.6913 19.5773C82.3676 20.7503 78.286 19.8971 74.9841 26.8301C74.3056 31.6984 75.947 33.7989 81.0039 33.8267C85.9572 33.8539 87.6689 31.4042 90.8427 30.1459L93.1404 34.0549C94.9526 33.7922 96.1582 33.1188 97.1825 32.2067C96.9292 30.7874 94.0935 25.6995 93.3614 24.7653L93.3616 24.7652ZM98.5326 32.7875C106.168 36.8449 112.309 22.6368 115.897 26.8278C117.082 28.0368 116.139 32.8487 120.14 33.5945C124.202 34.3513 123.797 29.5601 123.266 26.5359C122.041 19.5517 111.548 24.9558 106.986 25.4906C106.338 24.451 106.406 23.9238 105.647 22.9246C101.688 22.4574 97.7921 28.4803 98.5326 32.7877V32.7875ZM53.1121 29.7272C50.6162 28.6616 49.4747 27.0932 47.9755 25.0614C45.8651 22.2013 47.005 20.2441 46.6259 16.5445L44.1916 16.6663C42.7873 18.9504 43.2601 23.7664 43.4717 26.9525C32.4235 27.0238 36.3448 17.2553 35.9888 15.4625C33.1676 15.4088 30.8422 13.192 31.7569 22.7653C32.7842 33.515 41.966 30.2999 46.6391 31.9252C50.0603 33.115 53.2833 36.1451 53.1121 29.727V29.7272Z" fill="#0057FF"/>
<path fill-rule="evenodd" clip-rule="evenodd" d="M146.519 37.2168H74.8384C74.8384 44.4507 87.0677 51.9193 93.8952 51.9193H146.519V37.2168H146.519ZM91.5594 45.5383V44.48H95.377V47.823C94.791 48.2891 94.1864 48.642 93.5626 48.8771C92.939 49.1123 92.2985 49.2299 91.6432 49.2299C90.757 49.2299 89.9528 49.0409 89.2283 48.6608C88.506 48.2828 87.9579 47.7327 87.5905 47.0166C87.2208 46.2983 87.036 45.4961 87.036 44.6122C87.036 43.7343 87.2187 42.9154 87.5861 42.1531C87.9536 41.393 88.4808 40.8281 89.1694 40.4608C89.8583 40.0911 90.652 39.9062 91.5507 39.9062C92.2018 39.9062 92.7918 40.0113 93.3189 40.2234C93.8459 40.4354 94.2596 40.7294 94.5579 41.1053C94.858 41.4833 95.0849 41.9768 95.2403 42.5835L94.163 42.8776C94.0265 42.4197 93.8585 42.0585 93.6589 41.7939C93.4572 41.5315 93.1717 41.3214 92.7979 41.1639C92.4263 41.0064 92.0127 40.9266 91.5569 40.9266C91.0131 40.9266 90.5427 41.0107 90.1437 41.1766C89.7468 41.3424 89.4276 41.5608 89.1819 41.8337C88.9382 42.1047 88.7493 42.403 88.6149 42.7263C88.386 43.2869 88.2706 43.8917 88.2706 44.5447C88.2706 45.3512 88.4091 46.0251 88.6843 46.569C88.9613 47.1107 89.3647 47.514 89.8917 47.7764C90.4209 48.0388 90.9815 48.1711 91.5759 48.1711C92.0924 48.1711 92.5965 48.0704 93.0879 47.8709C93.5792 47.6692 93.9508 47.4572 94.2049 47.2283V45.5379H91.559L91.5594 45.5383ZM99.4313 49.0787V40.0575H103.43C104.234 40.0575 104.845 40.1395 105.263 40.3011C105.681 40.4629 106.014 40.7484 106.264 41.158C106.514 41.5673 106.638 42.021 106.638 42.5167C106.638 43.1572 106.43 43.6968 106.016 44.1356C105.603 44.5745 104.965 44.8517 104.099 44.9715C104.416 45.1226 104.656 45.2739 104.819 45.4208C105.168 45.74 105.498 46.141 105.806 46.622L107.367 49.0789H105.876L104.683 47.2017C104.336 46.6578 104.049 46.2441 103.824 45.9564C103.597 45.6686 103.396 45.4692 103.217 45.3538C103.041 45.2403 102.858 45.1606 102.673 45.1143C102.539 45.0871 102.319 45.0724 102.01 45.0724H100.628V49.0789H99.431L99.4313 49.0787ZM100.628 44.039H103.19C103.736 44.039 104.16 43.9823 104.467 43.8689C104.773 43.7576 105.007 43.5771 105.164 43.3271C105.324 43.0793 105.403 42.8105 105.403 42.5187C105.403 42.0924 105.25 41.7396 104.941 41.4645C104.633 41.1893 104.146 41.0529 103.48 41.0529H100.628V44.039ZM110.407 44.688C110.407 43.1927 110.81 42.021 111.614 41.1749C112.419 40.3286 113.456 39.9064 114.729 39.9064C115.562 39.9064 116.312 40.106 116.982 40.5028C117.649 40.8997 118.16 41.454 118.511 42.1659C118.861 42.8758 119.038 43.6819 119.038 44.5829C119.038 45.4963 118.853 46.3153 118.483 47.0355C118.114 47.7579 117.591 48.3039 116.915 48.6735C116.236 49.0452 115.505 49.23 114.722 49.23C113.872 49.23 113.114 49.0242 112.444 48.6146C111.776 48.2053 111.268 47.6465 110.923 46.937C110.579 46.2292 110.407 45.4796 110.407 44.688H110.407ZM111.642 44.7089C111.642 45.7945 111.933 46.6492 112.517 47.2728C113.101 47.8964 113.834 48.2094 114.716 48.2094C115.615 48.2094 116.352 47.8944 116.933 47.2644C117.513 46.6344 117.803 45.7399 117.803 44.5807C117.803 43.8478 117.679 43.2073 117.431 42.6613C117.183 42.1153 116.82 41.6913 116.343 41.3908C115.864 41.0906 115.329 40.9393 114.735 40.9393C113.891 40.9393 113.164 41.2291 112.555 41.8087C111.946 42.3882 111.642 43.3542 111.642 44.7088V44.7089ZM128.749 40.0575H129.946V45.2674C129.946 46.1745 129.843 46.8947 129.639 47.4283C129.434 47.9596 129.064 48.3942 128.531 48.7281C127.995 49.062 127.296 49.23 126.426 49.23C125.584 49.23 124.893 49.0851 124.358 48.7932C123.82 48.5013 123.438 48.0814 123.209 47.5291C122.981 46.9769 122.865 46.223 122.865 45.2675V40.0577H124.062V45.2654C124.062 46.0488 124.136 46.6282 124.28 46.9979C124.425 47.3697 124.673 47.6573 125.028 47.8566C125.381 48.0583 125.813 48.159 126.324 48.159C127.197 48.159 127.821 47.9596 128.193 47.5627C128.564 47.1637 128.749 46.3993 128.749 45.2654V40.0577L128.749 40.0575ZM134.206 49.0787V40.0575H137.612C138.211 40.0575 138.668 40.087 138.985 40.1436C139.429 40.2171 139.8 40.3578 140.101 40.5636C140.401 40.7715 140.642 41.0613 140.825 41.4329C141.008 41.8047 141.098 42.2142 141.098 42.6613C141.098 43.4257 140.854 44.0745 140.365 44.6037C139.878 45.1349 138.994 45.3995 137.717 45.3995H135.403V49.0786H134.206V49.0787ZM135.403 44.3414H137.734C138.507 44.3414 139.053 44.1986 139.378 43.9108C139.702 43.6232 139.863 43.2201 139.863 42.6972C139.863 42.3213 139.769 41.9979 139.578 41.7291C139.387 41.4603 139.135 41.2818 138.824 41.1957C138.622 41.1431 138.251 41.1158 137.711 41.1158H135.403V44.3412V44.3414Z" fill="#0057FF"/>
</svg>